<svg xmlns="http://www.w3.org/2000/svg" height="800" width="450"><path d="M0 0h450v800H0V0" fill="#ff0"/><rect transform="rotate(45 304.628 -126.18)" fill="#f60" width="216.173" height="466.69" x="483.903" y="280.073" ry="0"/><path d="M65.66 679.792h1.01v34.345h-1.01v-34.345" fill="#a40"/><path d="M409.205 596.897l2.857 2.857-465 465-2.857-2.857 465-465" fill="gray"/><rect transform="rotate(45 304.628 -126.18)" fill="#d45500" width="112.127" height="542.452" x="779.498" y="309.335" ry="0"/><path d="M394.908 478.946l2.857 2.858-465 465-2.857-2.858 465-465" fill="gray"/><path d="M307.925 389.138l89.805 89.806L4.213 872.461l-89.805-89.805 393.517-393.518" fill="#a40"/></svg>