<?xml version="1.0" encoding="UTF-8" standalone="no"?>
<!-- Generator: Adobe Illustrator 18.1.1, SVG Export Plug-In . SVG Version: 6.00 Build 0)  -->

<svg
   xmlns:dc="http://purl.org/dc/elements/1.1/"
   xmlns:cc="http://creativecommons.org/ns#"
   xmlns:rdf="http://www.w3.org/1999/02/22-rdf-syntax-ns#"
   xmlns:svg="http://www.w3.org/2000/svg"
   xmlns="http://www.w3.org/2000/svg"
   xmlns:sodipodi="http://sodipodi.sourceforge.net/DTD/sodipodi-0.dtd"
   xmlns:inkscape="http://www.inkscape.org/namespaces/inkscape"
   version="1.1"
   id="Capa_1"
   x="0px"
   y="0px"
   viewBox="0 0 13.999999 14"
   xml:space="preserve"
   inkscape:version="0.91 r13725"
   sodipodi:docname="icon.svg"
   width="14"
   height="14"><metadata
     id="metadata71"><rdf:RDF><cc:Work
         rdf:about=""><dc:format>image/svg+xml</dc:format><dc:type
           rdf:resource="http://purl.org/dc/dcmitype/StillImage" /><dc:title></dc:title></cc:Work></rdf:RDF></metadata><defs
     id="defs69" /><sodipodi:namedview
     pagecolor="#ffffff"
     bordercolor="#666666"
     borderopacity="1"
     objecttolerance="10"
     gridtolerance="10"
     guidetolerance="10"
     inkscape:pageopacity="0"
     inkscape:pageshadow="2"
     inkscape:window-width="1855"
     inkscape:window-height="1056"
     id="namedview67"
     showgrid="false"
     inkscape:zoom="15.459465"
     inkscape:cx="33.615123"
     inkscape:cy="0.98949701"
     inkscape:window-x="1345"
     inkscape:window-y="24"
     inkscape:window-maximized="1"
     inkscape:current-layer="Capa_1" /><g
     id="g3"
     transform="translate(0.01617132,-0.21487746)"><path
       d="M 18.622,8.371 18.077,7.076 c 0,0 1.268,-2.861 1.156,-2.971 L 17.554,2.466 C 17.438,2.353 14.576,3.659 14.576,3.659 l -1.32,-0.533 c 0,0 -1.166,-2.9 -1.326,-2.9 l -2.369,0 c -0.165,0 -1.244,2.906 -1.244,2.906 L 6.999,3.667 c 0,0 -2.922,-1.242 -3.034,-1.131 L 2.289,4.177 C 2.173,4.29 3.507,7.093 3.507,7.093 L 2.962,8.386 C 2.962,8.386 0,9.527 0,9.681 l 0,2.322 c 0,0.162 2.969,1.219 2.969,1.219 l 0.545,1.291 c 0,0 -1.268,2.859 -1.157,2.969 l 1.678,1.643 C 4.149,19.236 7.012,17.93 7.012,17.93 l 1.321,0.535 c 0,0 1.166,2.898 1.327,2.898 l 2.369,0 c 0.164,0 1.244,-2.906 1.244,-2.906 l 1.322,-0.535 c 0,0 2.916,1.242 3.029,1.133 l 1.678,-1.641 c 0.117,-0.115 -1.22,-2.916 -1.22,-2.916 l 0.544,-1.293 c 0,0 2.963,-1.143 2.963,-1.299 l 0,-2.32 C 21.59,9.425 18.622,8.371 18.622,8.371 Z m -4.366,2.423 c 0,1.867 -1.553,3.387 -3.461,3.387 -1.906,0 -3.461,-1.52 -3.461,-3.387 0,-1.867 1.555,-3.385 3.461,-3.385 1.909,0.001 3.461,1.518 3.461,3.385 z"
       id="path5"
       inkscape:connector-curvature="0" /><g
       id="g7" /><g
       id="g9" /><g
       id="g11" /><g
       id="g13" /><g
       id="g15" /><g
       id="g17" /><g
       id="g19" /><g
       id="g21" /><g
       id="g23" /><g
       id="g25" /><g
       id="g27" /><g
       id="g29" /><g
       id="g31" /><g
       id="g33" /><g
       id="g35" /></g><g
     id="g37"
     transform="translate(0,-7.5890007)" /><g
     id="g39"
     transform="translate(0,-7.5890007)" /><g
     id="g41"
     transform="translate(0,-7.5890007)" /><g
     id="g43"
     transform="translate(0,-7.5890007)" /><g
     id="g45"
     transform="translate(0,-7.5890007)" /><g
     id="g47"
     transform="translate(0,-7.5890007)" /><g
     id="g49"
     transform="translate(0,-7.5890007)" /><g
     id="g51"
     transform="translate(0,-7.5890007)" /><g
     id="g53"
     transform="translate(0,-7.5890007)" /><g
     id="g55"
     transform="translate(0,-7.5890007)" /><g
     id="g57"
     transform="translate(0,-7.5890007)" /><g
     id="g59"
     transform="translate(0,-7.5890007)" /><g
     id="g61"
     transform="translate(0,-7.5890007)" /><g
     id="g63"
     transform="translate(0,-7.5890007)" /><g
     id="g65"
     transform="translate(0,-7.5890007)" /></svg>